<?xml version="1.0" encoding="UTF-8"?>
<svg id="Layer_2" data-name="Layer 2" xmlns="http://www.w3.org/2000/svg" viewBox="0 0 255.05 111.53">
  <defs>
    <style>
      .cls-1 {
        fill: #f68549;
      }

      .cls-2 {
        fill: #581f15;
      }

      .cls-3 {
        fill: #bb5127;
      }

      .cls-4 {
        fill: #592517;
      }
    </style>
  </defs>
  <g id="Calque_1" data-name="Calque 1">
    <g>
      <g>
        <path class="cls-2" d="m136.29,42.67l1.16,13.19h2.1c.02-.06.02-.15,0-.28-.09-.87-1.59-15.34-1.8-17.26-.04-.53-.42-.59-.63-.16-.57,1.19-1.19,2.36-1.77,3.54-1.53,3.11-5.01,10.28-5.01,10.28,0,0-3.22-6.69-4.59-9.56-.65-1.35-1.24-2.74-1.88-4.1-.03-.07-.11-.23-.2-.42-.13-.28-.52-.2-.55.11-.12,1.28-2.12,17.82-2.12,17.82l1.6-.02,1.08-13.2s3.76,8.24,5.52,12.08c.15.33.29.66.47.97.14.26.33.21.46-.02.11-.18.19-.38.28-.58,1.12-2.48,2.23-4.97,3.38-7.43.71-1.52,2.51-4.98,2.51-4.98Z"/>
        <path class="cls-2" d="m203.52,55.46c-1.23-1.61-5.94-7.8-6.11-8.08,6.71-1.52,5.25-8.31,2.21-8.97,0,0-1.44-.51-5.12-.19-.25.02-.5.03-.75.02-.6-.02-1.68-.06-1.73-.13-.07-.09.66,12.89-.09,17.86h2.44l-.23-8.44,1.25.09s4.57,6.59,5.49,7.97c.11.16.27.25.45.25h2.02c.18,0,.28-.23.16-.38Zm-9.42-9.16v-7.23h1.97s4.27-.4,4.27,3.83-6.24,3.4-6.24,3.4Z"/>
        <path class="cls-2" d="m148.4,37.8l-7.43,18.06h1.44l2.47-6.79,5.93.07,2.36,6.71h2.5l-7.29-18.06Zm-3.04,10.01c.83-2.13,1.71-4.3,2.58-6.53.82,2.09,2.58,6.53,2.58,6.53,0,0-3.6,0-5.16,0Z"/>
        <path class="cls-2" d="m206.08,56.04c-.47.02-.68-.1-.65-.64.06-1.35.12-2.69.13-4.04.02-2.88.01-5.76,0-8.64,0-1.35-.07-2.7-.12-4.04-.02-.42.11-.57.51-.57,2.49.01,7.92-.03,7.92-.03l-.09,1.62s-3.73-.37-5.47-.33c-.42.01-.59.19-.6.65,0,1.79-.01,3.57-.03,5.36,0,.47.17.62.59.64,1.35.07,4.99-.16,4.99-.16v1.52s-3.09-.14-4.38-.17c-1.32-.03-1.21-.15-1.21,1.37,0,1.75-.09,4.71.03,6.03.42.42,6.3-.2,6.18-.11l.16,1.55s-6.72-.05-7.95,0Z"/>
        <path class="cls-2" d="m228.5,56.03c-.61,0-.51-.26-.5-.91.12-2.18.21-11.88.07-17.04-.04.1,5.72.18,8.16,0,.24-.02-.01,1.5-.01,1.5,0,0-5.35-.2-5.48-.21-.36-.03-.57.12-.57.55-.03,1.82-.07,3.64-.11,5.46,0,.46.19.6.61.64.98.09,5.17-.29,5.17-.29l-.05,1.68s-3.51-.16-4.9-.2c-.82-.02-.84,0-.84.89,0,1.71,0,6.58,0,6.58-.17.06,6.27-.05,6.27-.05v1.4c.11-.07-6.43-.1-7.81,0Z"/>
        <path class="cls-2" d="m190.14,39.13l-.53,1.84s-1.58-2.32-5.07-2.14c-1.94.1-3.83,1.17-4.85,3.05-1.19,1.47-1.53,6.25-.38,9.53.93,2.37,2.61,3.58,4.91,3.84,3.92.15,5.41-1.77,5.63-1.87,0,.28.04.57.01.85-.04.56-.32.9-.8,1.13-2.93,1.41-5.87,1.47-8.75-.1-1.96-1.07-3.21-2.85-3.81-5.21-.37-2.45-.41-4.55.12-6.46.7-2.51,2.32-4.22,4.57-5.14,5.06-1.9,8.93.67,8.93.67Z"/>
        <path class="cls-2" d="m220.57,38.11c1.82,0,6.05-.04,6.05-.04v1.55s-2.98-.05-4-.08c-.93-.03-.95,0-.95.99-.19,2.14.18,15.42.22,15.31h-2.39s.2-15.21.19-15.47c-.04-.81-.17-.86-.95-.83-1.19.04-3.95.08-3.95.08l.07-1.55s3.9.01,5.72.01c0,0,0,.02,0,.03Z"/>
        <path class="cls-2" d="m172.34,44.27c0-1.71-.06-5.91-.06-5.91l2.11-.06s-.2,13.54.04,17.58c-.66.02-2.25,0-2.25,0,0,0,.33-4.01.16-11.61Z"/>
        <path class="cls-2" d="m169.62,41.3l.68-2.03s-2.51-1.64-6.07-1.47c-3.56.18-9.03,1.77-9.03,8.86s3.87,9.77,8.67,9.77,6.28-1.57,6.28-1.57v-7.01h-1.85v6.75s-1.92.81-4.52.81-6.38-2.56-6.38-8.58,3.7-8.18,6.89-8.18,5.32,2.66,5.32,2.66Z"/>
        <path class="cls-2" d="m249.44,35.38s2.38.19,2.38-2.31-4.63-1.52-4.63-1.52v7.66h.88v-3.71h.63l2.41,3.71h1.21l-2.88-3.83Zm-1.37-.42v-3.06s2.71-.7,2.71,1.45c0,1.82-2.08,1.69-2.71,1.61Z"/>
        <path class="cls-2" d="m249.32,29.08c-3.16,0-5.72,2.82-5.72,6.3s2.56,6.3,5.72,6.3,5.73-2.82,5.73-6.3-2.56-6.3-5.73-6.3Zm0,12.01c-2.87,0-5.2-2.56-5.2-5.72s2.33-5.72,5.2-5.72,5.2,2.56,5.2,5.72-2.33,5.72-5.2,5.72Z"/>
        <path class="cls-2" d="m249.44,35.38s2.38.19,2.38-2.31-4.63-1.52-4.63-1.52v7.66h.88v-3.71h.63l2.41,3.71h1.21l-2.88-3.83Zm-1.37-.42v-3.06s2.71-.7,2.71,1.45c0,1.82-2.08,1.69-2.71,1.61Z"/>
        <path class="cls-2" d="m249.44,35.38s2.38.19,2.38-2.31-4.63-1.52-4.63-1.52v7.66h.88v-3.71h.63l2.41,3.71h1.21l-2.88-3.83Zm-1.37-.42v-3.06s2.71-.7,2.71,1.45c0,1.82-2.08,1.69-2.71,1.61Z"/>
      </g>
      <g>
        <polygon class="cls-3" points="86.02 43.54 86.02 43.56 51.3 65.7 16.98 43.36 25.16 38.25 32.22 42.88 51.3 55.39 77.02 38.59 86.02 43.54"/>
        <polygon class="cls-4" points="86.02 43.56 86.02 88.24 75.89 95.14 75.89 71.85 65.34 78.96 65.34 102.11 51.3 111.53 51.3 65.7 86.02 43.56"/>
        <path class="cls-4" d="m51.3,10.65v20.83l-19.08,11.4-7.06-4.63-8.18,5.11v44.85c-.05.36-.24.63-.58.82-.27.15-.51.34-.77.51-.15.09-.29.19-.43.29l-.03.02-6.32,3.94v-56.01L51.3,10.65Z"/>
        <polygon class="cls-3" points="102.41 32.95 93.97 37.73 51.3 10.65 8.84 37.77 0 32.84 51.3 0 102.41 32.95"/>
        <polygon class="cls-1" points="102.41 32.95 102.41 88.92 94.41 93.78 93.97 37.73 102.41 32.95"/>
      </g>
    </g>
  </g>
</svg>