<svg xmlns="http://www.w3.org/2000/svg" width="237" height="78" viewBox="0 0 237 78">
  <g id="Groupe_72" data-name="Groupe 72" transform="translate(19108 -778)">
    <g id="Groupe_71" data-name="Groupe 71">
      <rect id="Rectangle_47" data-name="Rectangle 47" width="237" height="78" transform="translate(-19108 778)" fill="#fff" opacity="0"/>
      <g id="Groupe_70" data-name="Groupe 70" transform="translate(-5680.014 189.482)">
        <g id="Groupe_67" data-name="Groupe 67" transform="translate(-13417.329 598.425)">
          <path id="Tracé_38" data-name="Tracé 38" d="M140.454,275.381v.012l-20.23,11.731-20-11.842,4.765-2.705,4.115,2.453,11.116,6.627,14.986-8.9Z" transform="translate(-90.337 -252.31)" fill="#bb5127"/>
          <path id="Tracé_39" data-name="Tracé 39" d="M261.09,292.379v23.674l-5.9,3.653v-12.34l-6.147,3.77V323.4l-8.183,4.99V304.11Z" transform="translate(-210.972 -269.297)" fill="#592517"/>
          <path id="Tracé_40" data-name="Tracé 40" d="M91.63,169.72v11.036L80.514,186.8,76.4,184.345l-4.765,2.705v23.762a.57.57,0,0,1-.34.435c-.154.078-.3.181-.446.27l-.253.152-.016.009-3.684,2.089V184.089Z" transform="translate(-61.743 -164.078)" fill="#592517"/>
          <path id="Tracé_41" data-name="Tracé 41" d="M90.329,147.5l-4.917,2.535L60.55,135.684,35.815,150.053l-5.152-2.612,29.887-17.4Z" transform="translate(-30.663 -130.042)" fill="#bb5127"/>
          <path id="Tracé_42" data-name="Tracé 42" d="M420.631,252.816V282.47l-4.658,2.579-.259-29.7Z" transform="translate(-360.965 -235.359)" fill="#f68549"/>
        </g>
        <g id="Groupe_68" data-name="Groupe 68" transform="translate(-13340.115 609.382)">
          <path id="Tracé_43" data-name="Tracé 43" d="M542.375,275.313l1.207,12.482h2.189a.657.657,0,0,0,.006-.262c-.093-.822-1.655-14.514-1.874-16.326-.04-.5-.44-.555-.651-.155-.595,1.129-1.239,2.23-1.846,3.353-1.589,2.942-5.214,9.726-5.214,9.726s-3.35-6.327-4.781-9.042c-.675-1.282-1.293-2.593-1.957-3.88-.032-.062-.114-.218-.21-.4a.305.305,0,0,0-.573.109c-.129,1.207-2.2,16.861-2.2,16.861l1.666-.016,1.119-12.487s3.912,7.8,5.741,11.432c.155.308.3.621.484.914.149.242.341.2.482-.018a5.383,5.383,0,0,0,.288-.549c1.169-2.345,2.317-4.7,3.512-7.031C540.5,278.583,542.375,275.313,542.375,275.313Z" transform="translate(-526.47 -262.459)" fill="#581f15"/>
          <path id="Tracé_44" data-name="Tracé 44" d="M829.152,288.492c-1.277-1.526-6.178-7.383-6.359-7.642,6.977-1.439,5.465-7.864,2.3-8.49a15.888,15.888,0,0,0-5.33-.176,7.551,7.551,0,0,1-.777.023,12.613,12.613,0,0,1-1.8-.122c-.075-.087.684,12.2-.1,16.9h2.536L819.389,281l1.3.083s4.752,6.236,5.714,7.536a.579.579,0,0,0,.469.236h2.106A.221.221,0,0,0,829.152,288.492Zm-9.8-8.666v-6.84l2.048.01s4.439-.39,4.439,3.609S819.356,279.826,819.356,279.826Z" transform="translate(-743.302 -263.533)" fill="#581f15"/>
          <path id="Tracé_45" data-name="Tracé 45" d="M616.04,270.9l-7.727,17.088h1.5l2.573-6.421,6.166.07,2.459,6.35h2.606Zm-3.162,9.47c.862-2.017,1.783-4.072,2.683-6.176.848,1.976,2.683,6.178,2.683,6.178Z" transform="translate(-587.534 -262.646)" fill="#581f15"/>
          <path id="Tracé_46" data-name="Tracé 46" d="M873.115,288.928c-.492.016-.7-.093-.68-.608.06-1.274.127-2.549.135-3.825q.028-4.085-.006-8.17c-.01-1.275-.076-2.55-.129-3.825-.016-.394.119-.542.535-.54,2.588.011,8.241-.025,8.241-.025l-.1,1.536s-3.884-.353-5.692-.308c-.438.011-.619.181-.619.616q0,2.536-.031,5.071c-.005.44.176.582.618.6,1.406.067,5.187-.152,5.187-.152v1.439s-3.21-.129-4.553-.16c-1.369-.032-1.255-.14-1.255,1.293,0,1.656-.094,4.453.028,5.708.439.393,6.558-.191,6.424-.109l.161,1.462S874.39,288.886,873.115,288.928Z" transform="translate(-784.595 -263.421)" fill="#581f15"/>
          <path id="Tracé_47" data-name="Tracé 47" d="M965.425,288.923c-.63,0-.528-.25-.522-.866.121-2.059.22-11.237.073-16.122-.045.1,5.952.169,8.488,0,.25-.017-.011,1.42-.011,1.42s-5.567-.186-5.7-.2c-.371-.025-.589.11-.6.519-.034,1.722-.076,3.445-.115,5.167-.01.433.2.569.634.606,1.022.085,5.379-.273,5.379-.273L973,280.764s-3.649-.149-5.1-.188c-.856-.023-.871,0-.875.845-.009,1.621,0,6.221,0,6.221-.172.06,6.523-.043,6.523-.043l-.013,1.323C973.667,288.861,966.861,288.824,965.425,288.923Z" transform="translate(-853.581 -263.422)" fill="#581f15"/>
          <path id="Tracé_48" data-name="Tracé 48" d="M767.289,272.03l-.548,1.741a6.261,6.261,0,0,0-5.279-2.02,6.172,6.172,0,0,0-5.044,2.889c-1.24,1.394-1.591,5.911-.391,9.019a5.81,5.81,0,0,0,5.112,3.636c4.079.141,5.625-1.671,5.862-1.771a7.212,7.212,0,0,1,.013.8,1.224,1.224,0,0,1-.833,1.071,10.328,10.328,0,0,1-9.1-.1,7.469,7.469,0,0,1-3.959-4.926,13.175,13.175,0,0,1,.129-6.112A7.42,7.42,0,0,1,758,271.395,11.7,11.7,0,0,1,767.289,272.03Z" transform="translate(-695.359 -262.525)" fill="#581f15"/>
          <path id="Tracé_49" data-name="Tracé 49" d="M916.776,271.971c1.9,0,6.292-.035,6.292-.035V273.4s-3.1-.045-4.163-.078c-.971-.03-.985,0-.994.934-.2,2.023.184,14.586.23,14.486H915.65s.212-14.395.2-14.636c-.045-.771-.179-.81-.984-.785-1.239.038-4.114.078-4.114.078l.073-1.463s4.056.011,5.953.011Z" transform="translate(-813.184 -263.422)" fill="#581f15"/>
          <path id="Tracé_50" data-name="Tracé 50" d="M736.355,278.41c-.01-1.621-.067-5.592-.067-5.592l2.194-.058s-.21,12.815.046,16.63c-.682.021-2.338,0-2.338,0A106.955,106.955,0,0,0,736.355,278.41Z" transform="translate(-682.943 -264.037)" fill="#581f15"/>
          <path id="Tracé_51" data-name="Tracé 51" d="M681.642,274.171l.707-1.924a12.3,12.3,0,0,0-6.317-1.388c-3.707.166-9.391,1.678-9.391,8.386s4.024,9.244,9.025,9.244S682.2,287,682.2,287v-6.634h-1.927v6.391a14.539,14.539,0,0,1-4.707.762c-2.707,0-6.634-2.422-6.634-8.117s3.854-7.743,7.171-7.743A8.08,8.08,0,0,1,681.642,274.171Z" transform="translate(-631.052 -262.609)" fill="#581f15"/>
          <path id="Tracé_52" data-name="Tracé 52" d="M1045.908,250.728s2.475.18,2.475-2.183-4.816-1.439-4.816-1.439v7.244h.914v-3.512h.659l2.5,3.512h1.263Zm-1.426-.4v-2.894s2.818-.659,2.818,1.37C1047.3,250.531,1045.134,250.407,1044.481,250.33Z" transform="translate(-912.279 -244.764)" fill="#581f15"/>
          <path id="Tracé_53" data-name="Tracé 53" d="M1034.806,238.4a5.956,5.956,0,1,0,5.957,5.956A5.955,5.955,0,0,0,1034.806,238.4Zm0,11.368a5.411,5.411,0,1,1,5.411-5.411A5.413,5.413,0,0,1,1034.806,249.771Z" transform="translate(-901.301 -238.403)" fill="#581f15"/>
          <path id="Tracé_54" data-name="Tracé 54" d="M1045.908,250.728s2.475.18,2.475-2.183-4.816-1.439-4.816-1.439v7.244h.914v-3.512h.659l2.5,3.512h1.263Zm-1.426-.4v-2.894s2.818-.659,2.818,1.37C1047.3,250.531,1045.134,250.407,1044.481,250.33Z" transform="translate(-912.279 -244.764)" fill="#581f15"/>
          <path id="Tracé_55" data-name="Tracé 55" d="M1045.908,250.728s2.475.18,2.475-2.183-4.816-1.439-4.816-1.439v7.244h.914v-3.512h.659l2.5,3.512h1.263Zm-1.426-.4v-2.894s2.818-.659,2.818,1.37C1047.3,250.531,1045.134,250.407,1044.481,250.33Z" transform="translate(-912.279 -244.764)" fill="#581f15"/>
        </g>
      </g>
    </g>
    <text id="AlgEriA" transform="translate(-18960 844)" fill="#6a6f78" font-size="20" font-family="SakkalMajalla-Bold, Sakkal Majalla" font-weight="700" letter-spacing="0.034em"><tspan x="0" y="0">ALGERIA</tspan></text>
  </g>
</svg>
